<svg width="177" height="96" viewBox="0 0 177 96" fill="none" xmlns="http://www.w3.org/2000/svg">
<path d="M9.1 66.622C11.1773 66.622 12.626 66.5127 13.446 66.294C14.3207 66.0753 14.8673 65.6653 15.086 65.064C15.3047 64.408 15.414 63.2873 15.414 61.702V22.178C15.414 20.5927 15.2773 19.4993 15.004 18.898C14.7853 18.242 14.266 17.8047 13.446 17.586C12.626 17.3673 11.1773 17.258 9.1 17.258V14.88H47.23V28H45.098C44.606 25.1027 44.0047 22.9707 43.294 21.604C42.5833 20.1827 41.4627 19.1713 39.932 18.57C38.4013 17.9687 36.1327 17.668 33.126 17.668H25.91C24.6527 17.668 23.8327 17.8593 23.45 18.242C23.122 18.57 22.958 19.3627 22.958 20.62V39.234H32.306C34.3833 39.234 35.914 39.0427 36.898 38.66C37.882 38.2227 38.538 37.5667 38.866 36.692C39.2487 35.8173 39.604 34.396 39.932 32.428H41.9V49.156H39.932C39.604 47.2427 39.2487 45.8487 38.866 44.974C38.538 44.0993 37.882 43.4433 36.898 43.006C35.914 42.5687 34.3833 42.35 32.306 42.35H22.958V59.898C22.958 61.8113 23.204 63.2053 23.696 64.08C24.188 64.9 25.09 65.474 26.402 65.802C27.7687 66.13 29.9553 66.294 32.962 66.294C36.406 66.294 39.0573 65.9933 40.916 65.392C42.7747 64.7907 44.2233 63.6973 45.262 62.112C46.3007 60.472 47.1753 58.0667 47.886 54.896H50.018L49.116 69H9.1V66.622ZM99.375 62.112C99.9763 64.0253 100.632 65.2553 101.343 65.802C102.108 66.3487 103.475 66.622 105.443 66.622V69H86.665V66.622H89.781C91.3663 66.622 92.159 65.9387 92.159 64.572C92.159 64.0253 92.077 63.4787 91.913 62.932L86.747 48.5H68.543L63.377 63.178C63.1583 63.9433 63.049 64.49 63.049 64.818C63.049 66.0207 63.8143 66.622 65.345 66.622H68.297V69H53.701V66.622C55.1223 66.622 56.2156 66.4853 56.981 66.212C57.7463 65.884 58.3476 65.392 58.785 64.736C59.277 64.0253 59.769 62.9593 60.261 61.538L77.645 14.88H82.237L99.375 62.112ZM85.763 45.712L77.727 23.408H77.481L69.609 45.712H85.763ZM110.239 66.622C112.316 66.622 113.765 66.5127 114.585 66.294C115.459 66.0753 116.006 65.6653 116.225 65.064C116.443 64.408 116.553 63.2873 116.553 61.702V22.178C116.553 20.5927 116.416 19.4993 116.143 18.898C115.924 18.242 115.405 17.8047 114.585 17.586C113.765 17.3673 112.316 17.258 110.239 17.258V14.88H148.369V28H146.237C145.745 25.1027 145.143 22.9707 144.433 21.604C143.722 20.1827 142.601 19.1713 141.071 18.57C139.54 17.9687 137.271 17.668 134.265 17.668H127.049C125.791 17.668 124.971 17.8593 124.589 18.242C124.261 18.57 124.097 19.3627 124.097 20.62V39.234H133.445C135.522 39.234 137.053 39.0427 138.037 38.66C139.021 38.2227 139.677 37.5667 140.005 36.692C140.387 35.8173 140.743 34.396 141.071 32.428H143.039V49.156H141.071C140.743 47.2427 140.387 45.8487 140.005 44.974C139.677 44.0993 139.021 43.4433 138.037 43.006C137.053 42.5687 135.522 42.35 133.445 42.35H124.097V59.898C124.097 61.8113 124.343 63.2053 124.835 64.08C125.327 64.9 126.229 65.474 127.541 65.802C128.907 66.13 131.094 66.294 134.101 66.294C137.545 66.294 140.196 65.9933 142.055 65.392C143.913 64.7907 145.362 63.6973 146.401 62.112C147.439 60.472 148.314 58.0667 149.025 54.896H151.157L150.255 69H110.239V66.622Z" fill="white"/>
<rect width="177" height="15" transform="matrix(1 0 0 -1 0 63)" fill="#232536"/>
<path d="M18.5957 55.3613V55.9424H16.3672V57.4189H18.8896V58H15.752V53.4199H18.8896V54.001H16.3672V55.3613H18.5957ZM24.6518 53.4199L22.5121 58H22.2045L20.0649 53.4199H20.8032L22.3481 56.9609L23.9135 53.4199H24.6518ZM28.8759 55.3613V55.9424H26.6473V57.4189H29.1698V58H26.0321V53.4199H29.1698V54.001H26.6473V55.3613H28.8759ZM32.7855 53.4199C33.0498 53.4199 33.3027 53.4701 33.5443 53.5703C33.7858 53.666 33.984 53.8164 34.139 54.0215C34.2985 54.222 34.3782 54.4795 34.3782 54.7939C34.3782 55.0765 34.2962 55.3158 34.1321 55.5117C33.9726 55.7077 33.7676 55.8558 33.5169 55.9561C33.2708 56.0518 33.0156 56.0996 32.7513 56.0996C32.6693 56.0996 32.5599 56.0951 32.4232 56.0859L34.556 58H33.6126L31.6439 56.0859V58H31.0286V53.4199H32.7855ZM31.6439 54.001V55.4707C31.7943 55.5117 31.9583 55.5436 32.1361 55.5664C32.3138 55.5892 32.4892 55.6006 32.6624 55.6006C33.0088 55.6006 33.2754 55.5277 33.4622 55.3818C33.6536 55.236 33.7493 55.04 33.7493 54.7939C33.7493 54.5387 33.6445 54.3428 33.4349 54.2061C33.2298 54.0693 32.9792 54.001 32.6829 54.001H31.6439ZM39.4295 53.4199L37.6726 56.1201V58H37.0095V56.209L35.2527 53.4199H35.991L37.3308 55.5801L38.6912 53.4199H39.4295ZM44.0363 53.4199V54.001H42.4572V57.9795H41.842V54.001H40.2629V53.4199H44.0363ZM46.1618 53.4199V55.3477H48.7731V53.4199H49.3883V58H48.7731V55.9287H46.1618V58H45.5465V53.4199H46.1618ZM53.6124 57.4189V58H51.4522V57.4189H52.2247V54.001H51.4522V53.4199H53.6124V54.001H52.8399V57.4189H53.6124ZM59.4976 53.4199V58H59.2652L56.2915 54.7256V58H55.6763V53.4199H55.9087L58.8823 56.7354V53.4199H59.4976ZM63.3115 55.498H65.3281V57.3779C65.2187 57.4964 65.0774 57.6126 64.9043 57.7266C64.7311 57.8359 64.5306 57.9271 64.3027 58C64.0794 58.0684 63.8333 58.1025 63.5644 58.1025C63.2181 58.1025 62.8991 58.041 62.6074 57.918C62.3157 57.7904 62.0605 57.6172 61.8418 57.3984C61.623 57.1797 61.4521 56.9268 61.3291 56.6396C61.2106 56.348 61.1513 56.0381 61.1513 55.71C61.1513 55.3818 61.2106 55.0742 61.3291 54.7871C61.4521 54.4954 61.623 54.2402 61.8418 54.0215C62.0605 53.8027 62.3157 53.6318 62.6074 53.5088C62.8991 53.3812 63.2181 53.3174 63.5644 53.3174C63.8971 53.3174 64.1683 53.363 64.3779 53.4541C64.5921 53.5452 64.7789 53.6637 64.9384 53.8096V54.4863C64.8382 54.4134 64.7242 54.3337 64.5966 54.2471C64.4736 54.1605 64.3278 54.0853 64.1591 54.0215C63.9951 53.9531 63.7968 53.9189 63.5644 53.9189C63.2226 53.9189 62.9173 53.9964 62.6484 54.1514C62.3795 54.3063 62.1676 54.5205 62.0127 54.7939C61.8577 55.0628 61.7802 55.3682 61.7802 55.71C61.7802 56.0518 61.8577 56.3571 62.0127 56.626C62.1676 56.8949 62.3795 57.109 62.6484 57.2686C62.9173 57.4235 63.2226 57.501 63.5644 57.501C63.7968 57.501 63.9837 57.4782 64.125 57.4326C64.2662 57.3825 64.3779 57.3278 64.4599 57.2686C64.542 57.2048 64.608 57.1523 64.6582 57.1113L64.665 56.0449H63.3115V55.498ZM71.2879 53.4199L73.4276 58H72.6893L72.2108 56.9062H70.0643L69.5789 58H68.8407L70.9803 53.4199H71.2879ZM71.1444 54.459L70.3172 56.3252H71.9579L71.1444 54.459ZM76.4212 53.3105C76.7584 53.3105 77.0501 53.3675 77.2962 53.4814C77.5468 53.5908 77.7405 53.7412 77.8772 53.9326C78.0139 54.124 78.0823 54.3451 78.0823 54.5957C78.0823 54.819 78.0185 55.0241 77.8909 55.2109C77.7633 55.3932 77.6038 55.5299 77.4124 55.6211C77.5491 55.6484 77.6835 55.7054 77.8157 55.792C77.9479 55.8786 78.0572 55.9971 78.1438 56.1475C78.235 56.2979 78.2805 56.4847 78.2805 56.708C78.2805 56.9632 78.2076 57.1934 78.0618 57.3984C77.916 57.6035 77.7063 57.7676 77.4329 57.8906C77.164 58.0091 76.845 58.0684 76.4759 58.0684C76.1933 58.0684 75.8971 58.0501 75.5872 58.0137C75.2819 57.9818 75.0221 57.943 74.8079 57.8975V53.4814C75.0449 53.4268 75.3024 53.3857 75.5804 53.3584C75.8629 53.3265 76.1432 53.3105 76.4212 53.3105ZM76.3802 53.8916C76.1888 53.8916 76.0156 53.8984 75.8606 53.9121C75.7102 53.9258 75.5644 53.9463 75.4231 53.9736V55.4092H76.4964C76.8063 55.4092 77.0432 55.3317 77.2073 55.1768C77.3714 55.0173 77.4534 54.8327 77.4534 54.623C77.4534 54.459 77.4033 54.3245 77.303 54.2197C77.2027 54.1104 77.0706 54.0283 76.9065 53.9736C76.747 53.9189 76.5716 53.8916 76.3802 53.8916ZM75.4231 57.4053C75.5872 57.4372 75.7695 57.46 75.97 57.4736C76.1705 57.4827 76.3346 57.4873 76.4622 57.4873C76.804 57.4873 77.0865 57.4167 77.3098 57.2754C77.5377 57.1341 77.6516 56.945 77.6516 56.708C77.6516 56.4574 77.54 56.2705 77.3167 56.1475C77.0979 56.0199 76.8291 55.9561 76.51 55.9561H75.4231V57.4053ZM82.0534 53.3174C82.3998 53.3174 82.7188 53.3812 83.0105 53.5088C83.3021 53.6318 83.5573 53.8027 83.7761 54.0215C83.9948 54.2402 84.1635 54.4954 84.282 54.7871C84.405 55.0742 84.4665 55.3818 84.4665 55.71C84.4665 56.0381 84.405 56.348 84.282 56.6396C84.1635 56.9268 83.9948 57.1797 83.7761 57.3984C83.5573 57.6172 83.3021 57.7904 83.0105 57.918C82.7188 58.041 82.3998 58.1025 82.0534 58.1025C81.7071 58.1025 81.3881 58.041 81.0964 57.918C80.8047 57.7904 80.5495 57.6172 80.3308 57.3984C80.112 57.1797 79.9411 56.9268 79.8181 56.6396C79.6996 56.348 79.6404 56.0381 79.6404 55.71C79.6404 55.3818 79.6996 55.0742 79.8181 54.7871C79.9411 54.4954 80.112 54.2402 80.3308 54.0215C80.5495 53.8027 80.8047 53.6318 81.0964 53.5088C81.3881 53.3812 81.7071 53.3174 82.0534 53.3174ZM82.0534 53.9189C81.7116 53.9189 81.4063 53.9964 81.1374 54.1514C80.8685 54.3063 80.6566 54.5205 80.5017 54.7939C80.3467 55.0628 80.2693 55.3682 80.2693 55.71C80.2693 56.0518 80.3467 56.3571 80.5017 56.626C80.6566 56.8949 80.8685 57.109 81.1374 57.2686C81.4063 57.4235 81.7116 57.501 82.0534 57.501C82.3952 57.501 82.7006 57.4235 82.9695 57.2686C83.2383 57.109 83.4502 56.8949 83.6052 56.626C83.7601 56.3571 83.8376 56.0518 83.8376 55.71C83.8376 55.3682 83.7601 55.0628 83.6052 54.7939C83.4502 54.5205 83.2383 54.3063 82.9695 54.1514C82.7006 53.9964 82.3952 53.9189 82.0534 53.9189ZM89.8253 53.4062V56.1885C89.8253 56.585 89.741 56.9268 89.5724 57.2139C89.4084 57.4964 89.185 57.7129 88.9025 57.8633C88.6199 58.0137 88.2987 58.0889 87.9386 58.0889C87.5832 58.0889 87.2619 58.0137 86.9748 57.8633C86.6922 57.7129 86.4666 57.4964 86.298 57.2139C86.1339 56.9268 86.0519 56.585 86.0519 56.1885V53.4062H86.6671V56.168C86.6671 56.4779 86.7241 56.7285 86.838 56.9199C86.9565 57.1113 87.1115 57.2503 87.3029 57.3369C87.4989 57.4189 87.7108 57.46 87.9386 57.46C88.1665 57.4554 88.3761 57.4121 88.5675 57.3301C88.7635 57.2435 88.9184 57.1068 89.0324 56.9199C89.1509 56.7285 89.2101 56.4779 89.2101 56.168V53.4062H89.8253ZM95.0475 53.4199V54.001H93.4684V57.9795H92.8531V54.001H91.274V53.4199H95.0475ZM102.012 55.3613V55.9424H99.7837V57.4189H102.306V58H99.1684V53.4199H102.306V54.001H99.7837V55.3613H102.012ZM108.068 53.4199L105.929 58H105.621L103.481 53.4199H104.22L105.765 56.9609L107.33 53.4199H108.068ZM112.292 55.3613V55.9424H110.064V57.4189H112.586V58H109.449V53.4199H112.586V54.001H110.064V55.3613H112.292ZM116.202 53.4199C116.466 53.4199 116.719 53.4701 116.961 53.5703C117.202 53.666 117.401 53.8164 117.555 54.0215C117.715 54.222 117.795 54.4795 117.795 54.7939C117.795 55.0765 117.713 55.3158 117.549 55.5117C117.389 55.7077 117.184 55.8558 116.933 55.9561C116.687 56.0518 116.432 56.0996 116.168 56.0996C116.086 56.0996 115.976 56.0951 115.84 56.0859L117.972 58H117.029L115.06 56.0859V58H114.445V53.4199H116.202ZM115.06 54.001V55.4707C115.211 55.5117 115.375 55.5436 115.553 55.5664C115.73 55.5892 115.906 55.6006 116.079 55.6006C116.425 55.6006 116.692 55.5277 116.879 55.3818C117.07 55.236 117.166 55.04 117.166 54.7939C117.166 54.5387 117.061 54.3428 116.851 54.2061C116.646 54.0693 116.396 54.001 116.099 54.001H115.06ZM122.846 53.4199L121.089 56.1201V58H120.426V56.209L118.669 53.4199H119.407L120.747 55.5801L122.108 53.4199H122.846ZM127.453 53.4199V54.001H125.874V57.9795H125.258V54.001H123.679V53.4199H127.453ZM129.578 53.4199V55.3477H132.19V53.4199H132.805V58H132.19V55.9287H129.578V58H128.963V53.4199H129.578ZM137.029 57.4189V58H134.869V57.4189H135.641V54.001H134.869V53.4199H137.029V54.001H136.256V57.4189H137.029ZM142.914 53.4199V58H142.682L139.708 54.7256V58H139.093V53.4199H139.325L142.299 56.7354V53.4199H142.914ZM146.728 55.498H148.745V57.3779C148.635 57.4964 148.494 57.6126 148.321 57.7266C148.148 57.8359 147.947 57.9271 147.719 58C147.496 58.0684 147.25 58.1025 146.981 58.1025C146.635 58.1025 146.316 58.041 146.024 57.918C145.732 57.7904 145.477 57.6172 145.258 57.3984C145.039 57.1797 144.869 56.9268 144.746 56.6396C144.627 56.348 144.568 56.0381 144.568 55.71C144.568 55.3818 144.627 55.0742 144.746 54.7871C144.869 54.4954 145.039 54.2402 145.258 54.0215C145.477 53.8027 145.732 53.6318 146.024 53.5088C146.316 53.3812 146.635 53.3174 146.981 53.3174C147.314 53.3174 147.585 53.363 147.794 53.4541C148.009 53.5452 148.195 53.6637 148.355 53.8096V54.4863C148.255 54.4134 148.141 54.3337 148.013 54.2471C147.89 54.1605 147.744 54.0853 147.576 54.0215C147.412 53.9531 147.213 53.9189 146.981 53.9189C146.639 53.9189 146.334 53.9964 146.065 54.1514C145.796 54.3063 145.584 54.5205 145.429 54.7939C145.274 55.0628 145.197 55.3682 145.197 55.71C145.197 56.0518 145.274 56.3571 145.429 56.626C145.584 56.8949 145.796 57.109 146.065 57.2686C146.334 57.4235 146.639 57.501 146.981 57.501C147.213 57.501 147.4 57.4782 147.541 57.4326C147.683 57.3825 147.794 57.3278 147.876 57.2686C147.958 57.2048 148.025 57.1523 148.075 57.1113L148.081 56.0449H146.728V55.498Z" fill="white"/>
</svg>
